<?xml version="1.0" encoding="UTF-8" standalone="no"?>
<!DOCTYPE svg PUBLIC "-//W3C//DTD SVG 1.1//EN" "http://www.w3.org/Graphics/SVG/1.1/DTD/svg11.dtd">
<svg width="100%" height="100%" viewBox="0 0 1146 794" version="1.1" xmlns="http://www.w3.org/2000/svg" xmlns:xlink="http://www.w3.org/1999/xlink" xml:space="preserve" xmlns:serif="http://www.serif.com/" style="fill-rule:evenodd;clip-rule:evenodd;stroke-linejoin:round;stroke-miterlimit:2;">
    <g transform="matrix(1,0,0,1,-260.558,-471.426)">
        <g id="logo">
            <g>
                <g transform="matrix(2.15039,0,0,2.15039,-2439.08,-1482.24)">
                    <g transform="matrix(4.16667,0,0,4.16667,-714.26,-12854.2)">
                        <path d="M523.729,3356.51L523.791,3357.19L527.763,3361.54L527.949,3362.22L527.701,3363.09L526.832,3363.71L525.032,3364.39L522.302,3365.39L519.074,3366.32L511.503,3367.56L511.441,3369.79L517.026,3368.74L521.06,3367.5L525.095,3365.95L527.949,3364.45L528.88,3363.53L529.253,3362.84L529.377,3362.22L529.004,3361.66L528.632,3360.86L527.577,3359.68L526.646,3358.93L525.529,3357.82L524.66,3357.19L524.164,3356.76L523.729,3356.51Z" style="fill:rgb(21,87,97);"/>
                    </g>
                    <g transform="matrix(4.16667,0,0,4.16667,-714.26,-12854.2)">
                        <path d="M526.693,3357.58L526.724,3358.17L528.182,3359.16L529.299,3359.78L530.168,3360.5L531.285,3361.12L531.937,3361.74L532.092,3362.14L532.123,3362.67L531.44,3363.57L530.634,3364.22L529.144,3365.37L527.499,3366.52L525.762,3367.48L523.62,3368.69L521.976,3369.41L520.424,3370.03L518.593,3370.68L517.321,3371.3L517.724,3373.66L523.465,3370.89L526.6,3368.94L529.361,3367.08L531.999,3364.87L533.24,3363.32L533.489,3362.76L533.426,3362.08L533.178,3361.52L532.837,3361.18L532.309,3360.72L531.44,3360L529.765,3359.07L528.461,3358.39L526.693,3357.58Z" style="fill:rgb(180,168,165);"/>
                    </g>
                    <g transform="matrix(4.16667,0,0,4.16667,-714.26,-12854.2)">
                        <path d="M533.613,3352.96L531.627,3352.99L530.82,3353.24L530.261,3353.58L529.423,3353.98L528.834,3354.45L528.368,3355.01L528.151,3355.47L528.089,3355.97L528.71,3356.53L530.013,3357.24L535.04,3359.75L535.94,3360.31L536.902,3361.37L537.15,3361.86L537.212,3362.27L537.212,3362.7L536.995,3363.17L536.468,3364.07L535.754,3365.09L534.637,3366.15L533.085,3367.61L530.944,3369.25L528.803,3370.77L526.755,3371.98L525.11,3372.88L522.162,3374.34L518.904,3375.52L516.7,3376.23L513.939,3377.04L514.342,3378.93L515.056,3380.17L516.018,3380.95L516.825,3381.45L523.745,3377.47L528.492,3374.28L532.744,3371.11L535.63,3368.44L537.337,3366.83L538.547,3365.12L538.919,3364.1L538.981,3363.04L538.702,3361.65L538.081,3360.9L537.305,3359.94L536.188,3359.13L533.985,3358.2L532.34,3357.43L530.82,3356.81L529.641,3356.16L529.113,3355.57L529.113,3355.04L529.392,3354.85L529.858,3354.54L530.51,3354.2L531.037,3353.89L531.689,3353.61L532.247,3353.45L532.589,3353.45L532.868,3353.42L533.209,3353.24L533.613,3352.96Z" style="fill:rgb(21,87,97);"/>
                    </g>
                    <g transform="matrix(4.16667,0,0,4.16667,-714.26,-12854.2)">
                        <path d="M544.861,3354.17L544.086,3354.79L547.406,3354.79L547.406,3354.66L556.995,3354.63L559.726,3354.73L561.463,3354.94L562.705,3355.19L563.729,3355.22L565.498,3355.53L566.459,3355.94L567.825,3356.47L568.663,3356.99L569.718,3357.89L570.587,3358.76L571.394,3359.72L572.138,3360.68L573.1,3361.83L573.907,3363.11L574.279,3363.7L576.234,3364.01L578.065,3364.1L575.459,3361.31L571.828,3357.61L570.494,3356.71L569.066,3355.75L567.577,3355.01L565.622,3354.51L564.349,3354.29L563.232,3354.14L561.494,3354.01L558.795,3353.89L551.719,3353.76L551.688,3353.92L548.492,3353.95L548.461,3354.14L546.196,3354.01L544.861,3354.17Z" style="fill:rgb(21,87,97);"/>
                    </g>
                    <g transform="matrix(4.16667,0,0,4.16667,-714.26,-12854.2)">
                        <path d="M541.385,3355.51L540.716,3355.93L541.97,3356.14L544.061,3356.1L544.187,3356.22L547.658,3356.18L547.616,3356.43L550.543,3356.39L550.418,3356.56L552.509,3356.51L552.551,3356.72L554.098,3356.68L554.181,3356.81L555.394,3356.76L555.499,3356.97L556.879,3356.83L556.879,3357.08L558.029,3357.06L558.092,3357.22L559.158,3357.18L559.158,3357.35L559.618,3357.31L559.681,3357.45L560.203,3357.45L560.224,3357.56L561.228,3357.73L561.813,3357.91L562.65,3358.21L563.423,3358.58L564.26,3358.98L564.824,3359.42L565.619,3360.19L566.163,3360.49L566.727,3361.24L567.313,3362.05L568.128,3363.14L568.797,3364.27L569.466,3365.34L569.863,3366.01L570.407,3366.53L571.16,3366.76L571.724,3366.88L572.247,3366.97L572.247,3367.07L573.481,3367.11L573.836,3367.2L573.753,3367.03L573.397,3366.57L573,3365.9L572.582,3365.3L571.913,3364.5L571.264,3363.75L570.595,3362.93L569.654,3361.87L568.023,3360.11L567.459,3359.69L566.664,3359.11L565.514,3358.33L564.051,3357.52L563.026,3357.12L562.022,3356.83L561.102,3356.66L560.266,3356.41L559.555,3356.43L558.614,3356.28L557.464,3356.12L555.896,3356.01L554.411,3355.89L554.411,3355.72L550.627,3355.72L550.564,3355.59L541.385,3355.51Z" style="fill:rgb(180,168,165);"/>
                    </g>
                    <g transform="matrix(4.16667,0,0,4.16667,-714.26,-12854.2)">
                        <path d="M532.419,3353.33L532.106,3353.62L531.959,3353.89L531.834,3354.18L531.75,3354.27L531.771,3354.48L531.876,3354.56L531.939,3354.79L532.231,3354.85L532.419,3355.08L532.524,3355.19L532.817,3355.4L533.109,3355.63L533.319,3355.82L533.862,3356.02L534.364,3356.15L534.845,3356.32L535.535,3356.46L536.497,3356.67L537.438,3356.74L538.358,3356.88L539.403,3356.99L540.658,3357.15L541.745,3357.26L543.627,3357.4L546.199,3357.55L548.478,3357.55L548.541,3357.74L550.548,3357.74L550.569,3357.86L551.823,3357.8L551.907,3357.99L553.057,3357.99L553.057,3358.18L554.082,3358.16L555.754,3358.6L557.218,3358.97L558.033,3359.29L559.246,3359.77L560.333,3360.27L561.504,3361.08L562.78,3362.11L564.285,3363.57L565.373,3365.27L566.021,3366.46L566.732,3368.24L567.443,3370.05L568.028,3372L568.091,3372.38L568.404,3373.38L568.614,3374.42L568.927,3375.41L569.178,3376.49L569.471,3377.64L569.847,3379.21L570.098,3380.15L569.095,3380.15L568.216,3379.92L567.631,3379.59L566.941,3379L566.376,3378.31L565.874,3377.54L565.582,3377.02L565.582,3376.24L565.394,3376.24L565.394,3375.18L565.289,3375.11L565.268,3373.88L565.122,3373.99L565.122,3373.21L565.059,3373.19L564.996,3372.1L564.829,3372.17L564.892,3371.39L564.704,3371.37L564.745,3370.56L564.599,3370.58L564.62,3369.68L564.494,3369.2L564.202,3368.65L563.993,3367.63L563.554,3366.75L563.156,3365.93L562.696,3365.2L562.341,3364.74L561.902,3364.22L561.358,3363.64L560.71,3363.13L559.811,3362.4L559.1,3362L558.514,3361.71L558.075,3361.42L557.427,3361.25L556.904,3360.85L555.838,3360.52L554.667,3360.1L552.869,3359.7L551.489,3359.45L551.447,3359.29L550.694,3359.35L550.632,3359.16L549.753,3359.2L549.712,3359.06L548.541,3359.01L548.52,3358.93L547.411,3358.95L547.432,3358.76L546.241,3358.78L546.157,3358.6L544.61,3358.72L544.589,3358.51L543.062,3358.53L543.104,3358.37L541.912,3358.43L541.891,3358.26L540.867,3358.22L540.783,3358.05L539.675,3358.09L539.675,3358.01L538.713,3357.97L537.689,3357.8L536.539,3357.59L535.556,3357.59L535.493,3357.4L534.887,3357.49L534.594,3357.32L534.197,3357.13L533.779,3356.99L533.151,3356.78L532.67,3356.46L532.106,3356.07L531.771,3355.79L531.353,3355.38L531.228,3355.17L531.039,3354.98L530.935,3354.89L530.956,3354.16L531.165,3354.04L531.479,3353.81L531.771,3353.51L532.043,3353.41L532.252,3353.28L532.419,3353.33Z" style="fill:rgb(21,87,97);"/>
                    </g>
                    <g transform="matrix(4.16667,0,0,4.16667,-714.26,-12854.2)">
                        <path d="M510.603,3340.14L518.167,3334.27L522.007,3334.03L526.894,3327.81L530.967,3330.02L534.982,3324.72L536.728,3326.59L538.182,3328.33L539.579,3330.08L541.266,3331.82L540.335,3332.06L538.299,3330.49L536.495,3328.86L535.564,3327.98L535.098,3327.75L534.691,3329.32L534.342,3330.78L533.935,3332.17L533.586,3331.12L532.946,3332.17L532.422,3333.34L532.073,3334.09L531.84,3332.93L531.666,3331.42L531.084,3331.82L527.302,3329.26L522.763,3334.91L522.007,3335.2L519.912,3335.37L518.516,3335.49L517.236,3336.65L516.014,3337.53L514.617,3338.69L513.163,3339.74L511.65,3340.96L510.603,3340.14Z" style="fill:rgb(180,168,165);"/>
                    </g>
                    <g transform="matrix(4.16667,0,0,4.16667,-714.26,-12854.2)">
                        <path d="M533.03,3351.28L533.116,3351.75L534.62,3351.62L537.199,3352.09L539.391,3351.36L545.624,3349.64L550.266,3345.9L555.597,3343.24L564.537,3333.52L569.351,3328.45L578.679,3332.84L579.066,3332.66L569.437,3326.43L563.764,3332.06L562.474,3333.44L554.221,3341.52L544.206,3348.91L533.116,3351.02L533.03,3351.28Z" style="fill:rgb(180,168,165);"/>
                    </g>
                    <g transform="matrix(4.16667,0,0,4.16667,-714.26,-12854.2)">
                        <path d="M521.87,3333.91L522.44,3333.11L518.679,3328.45L513.729,3333.38L512.154,3334.38L506.579,3335.45L505.679,3335.93L502.016,3332.28L494.266,3337.26L501.854,3333.75L503.004,3334.7L505.054,3337.25L508.654,3340.95L513.304,3345.95L517.104,3347.65L521.804,3351.25L528.204,3352.8L531.204,3352.45L522.254,3350.2L518.104,3347.1L513.954,3344.55L506.554,3336.95L507.654,3336.4L510.504,3335.7L512.004,3335.35L513.854,3334.55L515.504,3332.9L515.804,3334.15L516.354,3332.95L516.604,3333.55L517.554,3332.1L517.754,3333.45L518.754,3330.1L521.87,3333.91Z" style="fill:rgb(21,87,97);"/>
                    </g>
                    <g transform="matrix(4.16667,0,0,4.16667,-714.26,-12854.2)">
                        <path d="M538.039,3333.5L537.176,3333.71L537.238,3333.76L534.938,3334.51L531.888,3337.95L526.838,3340.31L520.138,3346.11L521.438,3346.91L527.638,3340.95L532.888,3339.2L535.838,3335.51L537.738,3335.01L537.438,3339.26L542.288,3333.95L542.438,3335.61L544.988,3332.11L545.288,3333.81L547.488,3329.51L558.09,3337.71L559.301,3336.7L547.113,3326.78L545.538,3328.11L543.313,3330.16L540.638,3332.56L538.088,3333.56L538.039,3333.5Z" style="fill:rgb(21,87,97);"/>
                    </g>
                </g>
                <g transform="matrix(1.27317,0,0,1.27317,-46.4538,-227.609)">
                    <g transform="matrix(-4.16667,0,0,4.16667,2106.02,-7845.07)">
                        <path d="M440.661,2059.01C440.468,2059.12 440.396,2059.2 440.445,2059.28C440.475,2059.32 440.604,2059.35 440.831,2059.36C441.46,2059.41 442.047,2059.52 442.592,2059.69C443.664,2060.03 444.626,2060.83 445.478,2062.07C446.552,2063.64 446.799,2065.29 446.217,2067.02C445.431,2069.38 443.372,2071.33 440.038,2072.85C437.775,2073.89 435.766,2074.19 434.012,2073.75C432.143,2073.27 430.815,2072.46 430.028,2071.31C429.508,2070.55 429.154,2069.76 428.966,2068.92C428.796,2068.18 428.784,2067.57 428.929,2067.09C428.997,2066.85 429.458,2066.31 430.313,2065.47C430.372,2065.39 430.359,2065.28 430.275,2065.16C430.186,2065.03 429.739,2065.22 428.934,2065.74C428.566,2065.99 428.265,2066.19 428.03,2066.36C427.96,2066.41 427.918,2066.52 427.905,2066.68C427.816,2067.42 427.893,2068.3 428.138,2069.31C428.409,2070.41 428.797,2071.32 429.302,2072.06C430.53,2073.85 432.089,2074.98 433.981,2075.46C436.209,2076.01 438.503,2075.75 440.864,2074.67C442.561,2073.89 443.991,2072.83 445.153,2071.49C446.285,2070.2 447.037,2068.79 447.408,2067.26C447.614,2066.42 447.626,2065.48 447.444,2064.43C447.235,2063.33 446.852,2062.38 446.292,2061.56C445.089,2059.8 443.928,2058.69 442.808,2058.22C442.677,2058.17 442.555,2058.17 442.44,2058.22C441.451,2058.63 440.859,2058.89 440.661,2059.01Z" style="fill:rgb(21,87,97);"/>
                    </g>
                    <g transform="matrix(-4.16667,0,0,4.16667,2106.02,-7845.07)">
                        <path d="M424.497,2053.41C423.377,2054.12 422.5,2055.05 421.868,2056.21C421.29,2057.25 420.976,2058.33 420.926,2059.45C420.87,2060.85 421.203,2061.93 421.924,2062.69C422.732,2063.54 423.781,2063.96 425.07,2063.93C426.156,2063.92 427.307,2063.52 428.523,2062.75C430.468,2061.51 431.645,2059.7 432.055,2057.31C432.358,2055.57 432.042,2054.22 431.11,2053.23C430.326,2052.41 429.37,2052.01 428.242,2052.05C427.114,2052.09 425.865,2052.54 424.497,2053.41ZM425.625,2055.02C426.97,2054.16 428.058,2053.73 428.891,2053.72C429.665,2053.71 430.298,2053.96 430.789,2054.48C431.274,2054.99 431.481,2055.62 431.409,2056.37C431.329,2057.17 430.9,2058.04 430.123,2058.96C429.416,2059.8 428.555,2060.54 427.539,2061.18C426.379,2061.92 425.393,2062.32 424.581,2062.39C423.646,2062.46 422.88,2062.18 422.283,2061.55C421.761,2061 421.552,2060.36 421.657,2059.63C421.862,2058.11 423.185,2056.57 425.625,2055.02Z" style="fill:rgb(21,87,97);"/>
                    </g>
                    <g transform="matrix(-4.16667,0,0,4.16667,2106.02,-7845.07)">
                        <path d="M408.745,2048.67C408.666,2048.68 408.631,2048.73 408.638,2048.83C408.676,2049.27 408.876,2049.83 409.238,2050.5C409.636,2051.25 410.051,2051.79 410.483,2052.14C410.648,2052.28 410.802,2052.29 410.945,2052.17C411.18,2051.97 411.59,2051.58 412.175,2050.98C412.937,2050.18 413.725,2049.34 414.537,2048.45C414.623,2048.35 414.691,2048.29 414.741,2048.26C414.783,2048.24 414.801,2048.25 414.794,2048.29C414.795,2048.34 414.766,2048.41 414.71,2048.52C414.078,2049.76 413.705,2051.07 413.59,2052.45C413.476,2053.83 413.702,2054.76 414.271,2055.22C415.091,2055.88 416.208,2055.63 417.62,2054.47C418.341,2053.87 419.606,2052.55 421.416,2050.51C422.285,2049.53 423.073,2048.75 423.779,2048.17C423.915,2048.06 424.026,2048.04 424.112,2048.11C424.522,2048.44 424.797,2048.96 424.937,2049.67C424.938,2049.74 424.973,2049.77 425.045,2049.76C425.095,2049.75 425.188,2049.73 425.324,2049.7C425.403,2049.68 425.431,2049.65 425.41,2049.6C425.385,2049.06 425.178,2048.45 424.788,2047.76C424.412,2047.1 424.008,2046.59 423.576,2046.24C423.425,2046.11 423.239,2046.14 423.018,2046.33C422.561,2046.7 421.702,2047.63 420.441,2049.1C418.889,2050.91 417.602,2052.24 416.582,2053.08C415.775,2053.74 415.181,2053.92 414.8,2053.61C414.196,2053.12 414.154,2051.95 414.675,2050.1C415.097,2048.6 415.721,2047.35 416.547,2046.35C417.117,2045.67 418.008,2044.68 419.219,2043.39C419.319,2043.28 419.311,2043.18 419.196,2043.09L418.117,2042.21C418.009,2042.12 417.912,2042.13 417.827,2042.22C417.022,2043.2 415.711,2044.73 413.895,2046.81C412.676,2048.13 411.457,2049.29 410.237,2050.3C410.137,2050.38 410.04,2050.38 409.946,2050.31C409.63,2050.05 409.362,2049.53 409.143,2048.73C409.121,2048.65 409.078,2048.62 409.014,2048.62C408.978,2048.63 408.935,2048.64 408.885,2048.64C408.835,2048.65 408.788,2048.66 408.745,2048.67Z" style="fill:rgb(21,87,97);"/>
                    </g>
                    <g transform="matrix(-4.16667,0,0,4.16667,2106.02,-7845.07)">
                        <path d="M402.97,2044.97C402.881,2045.01 402.851,2045.05 402.879,2045.1C403.037,2045.6 403.399,2046.22 403.964,2046.97C404.485,2047.65 404.891,2048.09 405.183,2048.29C405.356,2048.4 405.532,2048.37 405.71,2048.19C406.144,2047.75 406.952,2046.79 408.136,2045.3C409.352,2043.73 410.989,2041.62 413.047,2038.99C414.017,2037.74 414.878,2036.66 415.629,2035.73C416.573,2034.56 417.176,2033.84 417.437,2033.58C417.546,2033.47 417.663,2033.46 417.789,2033.54C418.065,2033.72 418.504,2034.17 419.108,2034.88C419.158,2034.93 419.242,2034.94 419.361,2034.91C419.403,2034.9 419.493,2034.85 419.633,2034.76C419.728,2034.72 419.741,2034.65 419.672,2034.56C418.436,2032.91 417.47,2031.86 416.777,2031.4C416.588,2031.28 416.436,2031.3 416.321,2031.47C415.299,2032.92 413.883,2034.84 412.073,2037.23C409.85,2040.15 408.12,2042.36 406.882,2043.88C405.559,2045.52 404.892,2046.35 404.879,2046.36C404.752,2046.49 404.617,2046.51 404.475,2046.41C404.065,2046.14 403.715,2045.66 403.423,2044.97C403.384,2044.89 403.333,2044.85 403.27,2044.86C403.214,2044.88 403.114,2044.91 402.97,2044.97Z" style="fill:rgb(21,87,97);"/>
                    </g>
                    <g transform="matrix(-4.16667,0,0,4.16667,2106.02,-7845.07)">
                        <path d="M399.424,2031.96C399.35,2032.05 399.37,2032.24 399.483,2032.53C400.175,2034.46 401.312,2036.6 402.892,2038.95C402.996,2039.08 403.013,2039.21 402.945,2039.36C402.831,2039.58 402.601,2039.91 402.255,2040.33C401.513,2041.23 400.684,2041.78 399.769,2041.98C398.964,2042.16 398.226,2042.06 397.554,2041.69C396.487,2041.1 395.737,2040.13 395.305,2038.77C395.286,2038.69 395.233,2038.65 395.146,2038.65C395.109,2038.65 395.019,2038.67 394.876,2038.71C394.783,2038.75 394.743,2038.8 394.757,2038.86C394.764,2039.41 394.94,2040.04 395.283,2040.75C395.971,2042.17 396.848,2043.17 397.915,2043.76C398.646,2044.17 399.537,2044.17 400.588,2043.77C401.746,2043.33 402.849,2042.47 403.898,2041.2C405.303,2039.5 405.74,2037.59 405.209,2035.48C404.848,2034.05 404.247,2033.1 403.407,2032.64C402.206,2031.98 401.255,2031.97 400.553,2032.61C400.437,2032.71 400.312,2032.72 400.178,2032.64C400.136,2032.62 400.087,2032.48 400.031,2032.21C399.975,2031.94 399.921,2031.81 399.867,2031.8C399.691,2031.76 399.543,2031.81 399.424,2031.96ZM401.266,2034.41C401.482,2034.12 401.799,2033.94 402.219,2033.86C402.638,2033.78 403.011,2033.83 403.339,2034.01C403.952,2034.35 404.323,2034.81 404.451,2035.38C404.615,2036.04 404.3,2037.03 403.504,2038.35C403.447,2038.44 403.396,2038.49 403.351,2038.49C403.32,2038.48 403.278,2038.44 403.225,2038.37C402.331,2037.13 401.64,2035.91 401.15,2034.71C401.125,2034.66 401.164,2034.57 401.266,2034.41Z" style="fill:rgb(21,87,97);"/>
                    </g>
                    <g transform="matrix(-4.16667,0,0,4.16667,2106.02,-7845.07)">
                        <path d="M388.931,2027.31C388.869,2027.4 388.912,2027.59 389.061,2027.88C389.99,2029.74 391.386,2031.77 393.251,2033.98C393.369,2034.1 393.403,2034.23 393.353,2034.38C393.268,2034.61 393.079,2034.96 392.787,2035.4C392.16,2036.36 391.405,2036.98 390.52,2037.26C389.741,2037.5 388.994,2037.46 388.279,2037.15C387.145,2036.65 386.279,2035.75 385.68,2034.43C385.651,2034.35 385.593,2034.32 385.507,2034.33C385.47,2034.33 385.383,2034.36 385.245,2034.41C385.158,2034.46 385.124,2034.51 385.145,2034.56C385.221,2035.11 385.474,2035.73 385.905,2036.4C386.765,2037.76 387.762,2038.68 388.896,2039.18C389.674,2039.52 390.56,2039.45 391.556,2038.96C392.653,2038.43 393.645,2037.49 394.53,2036.14C395.717,2034.32 395.915,2032.39 395.124,2030.33C394.587,2028.94 393.872,2028.05 392.979,2027.66C391.701,2027.1 390.754,2027.17 390.136,2027.87C390.032,2027.97 389.909,2027.99 389.766,2027.93C389.722,2027.91 389.655,2027.77 389.566,2027.51C389.478,2027.25 389.407,2027.12 389.352,2027.11C389.172,2027.09 389.031,2027.16 388.931,2027.31ZM391.069,2029.6C391.247,2029.29 391.54,2029.08 391.947,2028.97C392.355,2028.86 392.733,2028.88 393.081,2029.03C393.733,2029.32 394.158,2029.74 394.357,2030.29C394.602,2030.94 394.411,2031.95 393.783,2033.33C393.739,2033.43 393.694,2033.48 393.649,2033.48C393.617,2033.48 393.571,2033.44 393.51,2033.38C392.466,2032.21 391.626,2031.06 390.99,2029.9C390.96,2029.86 390.986,2029.76 391.069,2029.6Z" style="fill:rgb(21,87,97);"/>
                    </g>
                    <g transform="matrix(-4.16667,0,0,4.16667,2106.02,-7845.07)">
                        <path d="M372.408,2017.21C372.229,2017.64 372.405,2017.93 372.933,2018.08C373.451,2018.22 374.308,2017.84 375.504,2016.94C375.71,2016.78 375.938,2016.73 376.187,2016.8C377.791,2017.24 378.889,2017.86 379.482,2018.65C380.034,2019.36 380.131,2020.15 379.775,2021.01C379.507,2021.67 379.059,2022.14 378.431,2022.45C377.803,2022.75 376.805,2022.99 375.436,2023.18C373.368,2023.44 371.836,2023.84 370.84,2024.36C369.916,2024.84 369.266,2025.54 368.89,2026.45C368.298,2027.88 368.407,2029.27 369.217,2030.6C370.027,2031.93 371.306,2032.83 373.054,2033.31C374.427,2033.69 375.72,2033.71 376.933,2033.38C378.145,2033.05 378.918,2032.47 379.252,2031.66C379.368,2031.38 379.385,2031.09 379.303,2030.8C379.221,2030.51 379.041,2030.32 378.762,2030.24C378.513,2030.17 378.234,2030.24 377.925,2030.45C377.617,2030.65 377.395,2030.92 377.259,2031.25C377.216,2031.35 377.135,2031.74 377.013,2032.42C376.971,2032.61 376.834,2032.72 376.604,2032.76C375.622,2032.96 374.57,2032.9 373.446,2032.6C372.294,2032.28 371.458,2031.65 370.937,2030.7C370.417,2029.76 370.355,2028.81 370.749,2027.85C371.015,2027.21 371.478,2026.72 372.14,2026.39C372.843,2026.03 374.101,2025.66 375.913,2025.29C377.619,2024.94 378.899,2024.49 379.754,2023.95C380.551,2023.44 381.134,2022.74 381.502,2021.84C381.962,2020.73 381.774,2019.65 380.939,2018.62C380.103,2017.59 378.831,2016.83 377.122,2016.36C376.065,2016.07 375.07,2016.01 374.135,2016.17C373.2,2016.34 372.624,2016.69 372.408,2017.21Z" style="fill:rgb(21,87,97);"/>
                    </g>
                    <g transform="matrix(-4.16667,0,0,4.16667,2106.02,-7845.07)">
                        <path d="M362.998,2015.41C362.781,2016.2 363.098,2016.67 363.948,2016.83C364.581,2016.95 364.99,2016.66 365.176,2015.99C365.265,2015.66 365.218,2015.37 365.035,2015.11C364.853,2014.84 364.589,2014.68 364.243,2014.62C363.59,2014.5 363.175,2014.76 362.998,2015.41ZM358.545,2028.65C358.508,2028.72 358.507,2028.76 358.542,2028.78C358.982,2029.18 359.625,2029.6 360.472,2030.04C361.318,2030.47 362.028,2030.74 362.602,2030.85C362.81,2030.89 362.938,2030.82 362.986,2030.64C363.186,2029.91 363.388,2028.55 363.593,2026.55C363.932,2023.3 364.169,2021.43 364.304,2020.93C364.351,2020.76 364.426,2020.72 364.529,2020.8C365.17,2021.26 365.705,2021.72 366.134,2022.16C366.197,2022.23 366.267,2022.24 366.341,2022.2C366.4,2022.17 366.489,2022.13 366.61,2022.07C366.663,2022.03 366.668,2021.97 366.624,2021.9C366.015,2021.13 365.347,2020.46 364.62,2019.89C363.812,2019.28 363.275,2018.95 363.008,2018.9C362.869,2018.87 362.784,2018.92 362.753,2019.03C362.607,2019.57 362.405,2020.84 362.146,2022.84C362.075,2023.67 361.958,2024.84 361.795,2026.35C361.644,2027.69 361.488,2028.66 361.329,2029.24C361.285,2029.4 361.169,2029.47 360.981,2029.43C360.298,2029.31 359.616,2028.97 358.933,2028.43C358.865,2028.38 358.799,2028.37 358.734,2028.42C358.669,2028.47 358.606,2028.55 358.545,2028.65Z" style="fill:rgb(21,87,97);"/>
                    </g>
                    <g transform="matrix(-4.16667,0,0,4.16667,2106.02,-7845.07)">
                        <path d="M347.064,2017.36C346.969,2017.96 346.97,2018.45 347.066,2018.82C347.069,2018.87 347.077,2018.92 347.09,2018.97C347.103,2019.02 347.193,2019.06 347.36,2019.1C347.729,2019.16 348.099,2019.21 348.468,2019.27C349.025,2019.37 349.275,2019.5 349.22,2019.66C349.112,2019.96 349.025,2020.32 348.958,2020.76C348.88,2021.26 348.941,2021.84 349.141,2022.5C349.341,2023.15 349.613,2023.65 349.958,2024C350.791,2024.82 351.74,2025.32 352.806,2025.49C353.145,2025.54 353.401,2025.64 353.573,2025.79C353.908,2026.06 354.05,2026.4 353.999,2026.79C353.959,2027.18 353.615,2027.53 352.965,2027.83C352.69,2027.96 352.062,2028.12 351.083,2028.31C349.124,2028.69 347.834,2029.07 347.213,2029.46C346.592,2029.84 346.238,2030.34 346.151,2030.97C346.026,2031.84 346.593,2032.8 347.85,2033.85C349.072,2034.86 350.769,2035.48 352.941,2035.71C354.449,2035.86 355.729,2035.71 356.782,2035.24C357.757,2034.81 358.303,2034.19 358.421,2033.37C358.523,2032.57 358.008,2031.77 356.877,2030.96C356.124,2030.42 355.203,2029.93 354.114,2029.51C353.98,2029.46 353.979,2029.39 354.113,2029.32C354.87,2028.99 355.299,2028.42 355.4,2027.64C355.493,2026.97 355.121,2026.34 354.285,2025.73C354.184,2025.66 354.227,2025.62 354.416,2025.58C354.999,2025.51 355.584,2025.25 356.17,2024.8C356.756,2024.34 357.117,2023.64 357.253,2022.7C357.435,2021.39 357.02,2020.21 356.008,2019.16C355.111,2018.22 354.024,2017.69 352.748,2017.56C351.994,2017.48 351.38,2017.52 350.905,2017.68C350.566,2017.83 350.255,2018.02 349.975,2018.25C349.884,2018.3 349.723,2018.32 349.492,2018.3C348.567,2018.2 348.006,2018.07 347.807,2017.9C347.637,2017.75 347.498,2017.55 347.392,2017.32C347.369,2017.26 347.311,2017.24 347.218,2017.25C347.125,2017.25 347.074,2017.29 347.064,2017.36ZM350.697,2021.3C350.791,2020.49 350.994,2019.85 351.304,2019.36C351.763,2018.64 352.449,2018.33 353.364,2018.42C354.028,2018.49 354.566,2018.74 354.979,2019.18C355.488,2019.72 355.656,2020.64 355.484,2021.95C355.348,2023.03 355.119,2023.78 354.797,2024.21C354.374,2024.77 353.8,2025.01 353.077,2024.93C352.262,2024.85 351.64,2024.55 351.21,2024.03C350.713,2023.4 350.542,2022.5 350.697,2021.3ZM347.941,2031.58C348.089,2030.83 348.793,2030.3 350.054,2030.01C351.093,2029.76 352.044,2029.69 352.909,2029.78C354.045,2029.89 354.981,2030.28 355.718,2030.93C356.535,2031.66 356.904,2032.34 356.826,2032.98C356.746,2033.63 356.34,2034.13 355.609,2034.5C354.789,2034.92 353.66,2035.05 352.222,2034.9C350.855,2034.76 349.802,2034.37 349.063,2033.74C348.179,2032.98 347.805,2032.26 347.941,2031.58Z" style="fill:rgb(21,87,97);"/>
                    </g>
                    <g transform="matrix(-4.16667,0,0,4.16667,2106.02,-7845.07)">
                        <path d="M332.749,2027.03C332.708,2027.11 332.718,2027.16 332.779,2027.18C333.263,2027.54 333.939,2027.85 334.809,2028.12C335.638,2028.38 336.362,2028.52 336.98,2028.52C337.183,2028.52 337.285,2028.42 337.286,2028.22C337.289,2027.77 337.11,2026.58 336.748,2024.68C336.347,2022.55 336.15,2021.04 336.156,2020.14C336.165,2018.87 336.473,2018.24 337.081,2018.24C337.831,2018.24 338.778,2019.03 339.923,2020.59C340.666,2021.6 341.26,2022.85 341.706,2024.34C342.142,2025.77 342.488,2027.04 342.744,2028.15C342.783,2028.31 342.894,2028.4 343.076,2028.4L344.08,2028.4C344.272,2028.4 344.354,2028.33 344.324,2028.18C344.098,2027.14 343.755,2025.42 343.296,2023.03C342.985,2021.07 342.833,2019.6 342.839,2018.63C342.841,2018.46 342.902,2018.4 343.023,2018.44C343.539,2018.63 344.074,2018.92 344.628,2019.29C344.709,2019.34 344.785,2019.34 344.856,2019.29C344.897,2019.27 344.958,2019.22 345.04,2019.15C345.081,2019.1 345.071,2019.04 345.011,2018.98C344.648,2018.67 344.063,2018.28 343.255,2017.81C342.478,2017.36 341.898,2017.06 341.513,2016.93C341.301,2016.86 341.114,2016.83 340.952,2016.83C340.82,2016.83 340.763,2016.98 340.781,2017.29C340.951,2019.08 341.12,2020.4 341.286,2021.27C341.315,2021.42 341.33,2021.52 341.329,2021.59C341.319,2021.66 341.293,2021.68 341.253,2021.65C341.213,2021.62 341.152,2021.53 341.072,2021.39C340.342,2020.09 339.548,2019.05 338.692,2018.27C337.615,2017.28 336.696,2016.78 335.936,2016.78C334.771,2016.78 334.182,2017.6 334.171,2019.25C334.165,2020.07 334.392,2021.74 334.851,2024.23C335.076,2025.43 335.186,2026.43 335.18,2027.24C335.179,2027.45 335.082,2027.53 334.889,2027.49C334.151,2027.35 333.544,2027.14 333.07,2026.85C332.999,2026.8 332.933,2026.81 332.872,2026.87C332.852,2026.89 332.811,2026.94 332.749,2027.03Z" style="fill:rgb(21,87,97);"/>
                    </g>
                    <g transform="matrix(-4.16667,0,0,4.16667,2106.02,-7845.07)">
                        <path d="M322.202,2018.88C322.224,2019.05 322.338,2019.2 322.545,2019.34C322.751,2019.48 322.96,2019.54 323.171,2019.52C323.695,2019.47 324.135,2019.09 324.491,2018.38C324.564,2018.24 324.702,2018.16 324.904,2018.14C325.498,2018.09 326.037,2018.2 326.521,2018.48C327.005,2018.75 327.277,2019.11 327.336,2019.57C327.437,2020.35 327.141,2021.05 326.445,2021.66C325.824,2022.21 325.252,2022.71 324.728,2023.14C323.608,2024.09 323.126,2025.17 323.282,2026.37C323.397,2027.26 323.925,2027.95 324.864,2028.43C325.738,2028.88 326.759,2029.05 327.928,2028.95C329.036,2028.86 329.92,2028.6 330.58,2028.18C331.182,2027.8 331.454,2027.38 331.396,2026.94C331.331,2026.44 330.976,2026.21 330.331,2026.27C329.847,2026.31 329.412,2026.89 329.026,2028C328.981,2028.12 328.882,2028.2 328.73,2028.25C328.578,2028.29 328.336,2028.33 328.004,2028.36C327.278,2028.42 326.639,2028.29 326.086,2027.95C325.533,2027.62 325.223,2027.2 325.158,2026.69C325.047,2025.84 325.377,2025.08 326.149,2024.43C326.524,2024.11 327.061,2023.65 327.758,2023.06C328.818,2022.19 329.28,2021.24 329.145,2020.2C329.031,2019.32 328.555,2018.64 327.715,2018.13C326.876,2017.63 325.902,2017.43 324.793,2017.53C322.969,2017.68 322.105,2018.13 322.202,2018.88Z" style="fill:rgb(21,87,97);"/>
                    </g>
                    <g transform="matrix(-4.16667,0,0,4.16667,2106.02,-7845.07)">
                        <path d="M295.919,2027.09L296.073,2027.41C296.112,2027.49 296.195,2027.51 296.321,2027.48L297.164,2027.27C297.551,2027.17 297.825,2027.24 297.985,2027.47C298.268,2027.88 298.661,2028.64 299.164,2029.76C299.529,2030.56 299.774,2031.18 299.898,2031.63C299.972,2031.85 300.105,2031.96 300.297,2031.97C301.392,2032.01 302.505,2032.15 303.636,2032.39C305.086,2032.69 306.61,2032.64 308.208,2032.24C310.417,2031.69 312.051,2030.72 313.11,2029.33C313.673,2028.6 313.999,2027.68 314.089,2026.57C314.164,2025.55 314.037,2024.61 313.71,2023.74C312.734,2021.14 310.721,2019.01 307.673,2017.36C306.584,2016.78 305.254,2016.38 303.682,2016.18C302.047,2015.97 300.571,2016.04 299.253,2016.37C296.929,2016.95 295.062,2017.77 293.653,2018.81C293.558,2018.9 293.533,2019 293.577,2019.12C293.836,2019.81 294.124,2020.32 294.441,2020.66C294.513,2020.74 294.583,2020.77 294.65,2020.75C294.699,2020.74 294.741,2020.68 294.776,2020.57C295.134,2019.69 295.648,2019.02 296.315,2018.54C297.117,2017.96 298.167,2017.51 299.465,2017.18C300.395,2016.95 301.417,2016.86 302.531,2016.92C304.186,2017.01 305.606,2017.44 306.792,2018.23C307.933,2018.99 308.839,2019.8 309.509,2020.68C310.139,2021.51 310.712,2022.61 311.226,2023.98C311.789,2025.48 311.877,2026.77 311.489,2027.86C310.803,2029.75 309.418,2030.96 307.336,2031.49C306.416,2031.72 305.432,2031.8 304.387,2031.72C303.395,2031.65 302.74,2031.48 302.42,2031.21C302.101,2030.94 301.584,2029.99 300.868,2028.37C300.326,2027.15 300.21,2026.5 300.52,2026.42L303.107,2025.78C303.232,2025.74 303.271,2025.69 303.222,2025.62L303.016,2025.24C302.957,2025.17 302.88,2025.14 302.783,2025.17L295.997,2026.87C295.891,2026.9 295.865,2026.97 295.919,2027.09Z" style="fill:rgb(21,87,97);"/>
                    </g>
                    <g transform="matrix(-4.16667,0,0,4.16667,2106.02,-7845.07)">
                        <path d="M282.288,2029.02C282.414,2029.24 282.654,2029.39 283.005,2029.5C283.397,2029.61 283.771,2029.6 284.128,2029.46C284.557,2029.29 285.041,2029.04 285.578,2028.71C285.711,2028.63 285.848,2028.61 285.987,2028.63C286.827,2028.82 287.793,2029.21 288.886,2029.81C290.396,2030.65 291.613,2031.58 292.539,2032.63C293.052,2033.2 293.903,2034.24 295.09,2035.75C295.205,2035.89 295.349,2035.92 295.523,2035.86L296.798,2035.36C296.972,2035.29 297.005,2035.19 296.899,2035.07C296.142,2034.22 294.917,2032.8 293.223,2030.8C291.898,2029.15 290.978,2027.89 290.462,2027.01C290.378,2026.86 290.387,2026.78 290.487,2026.76C290.95,2026.73 291.597,2026.8 292.427,2026.97C292.531,2026.99 292.595,2026.98 292.619,2026.92C292.647,2026.87 292.68,2026.79 292.719,2026.69C292.729,2026.63 292.691,2026.58 292.606,2026.55C291.376,2026.18 290.1,2025.99 288.777,2025.97C288.31,2025.96 288.004,2025.98 287.858,2026.04C287.72,2026.09 287.693,2026.19 287.777,2026.33C287.895,2026.54 288.02,2026.72 288.152,2026.89C289.059,2028.15 289.846,2029.19 290.514,2030C290.677,2030.19 290.75,2030.29 290.731,2030.32C290.668,2030.31 290.55,2030.24 290.375,2030.11C289.348,2029.38 288.066,2028.74 286.527,2028.2C285.029,2027.68 283.845,2027.58 282.977,2027.92C282.255,2028.21 282.025,2028.57 282.288,2029.02Z" style="fill:rgb(21,87,97);"/>
                    </g>
                    <g transform="matrix(-4.16667,0,0,4.16667,2106.02,-7845.07)">
                        <path d="M276.371,2043.02C276.37,2043.08 276.427,2043.12 276.545,2043.15C277.011,2043.24 277.758,2043.22 278.785,2043.1C279.813,2042.97 280.502,2042.81 280.853,2042.63C281.016,2042.55 281.043,2042.43 280.935,2042.29C280.22,2041.37 279.31,2040.38 278.202,2039.34C278.058,2039.2 278.019,2039.11 278.088,2039.07C278.148,2039.04 278.257,2039.08 278.414,2039.17C279.378,2039.75 280.48,2040.18 281.72,2040.45C282.586,2040.64 283.163,2040.74 283.452,2040.76C284.058,2040.8 284.597,2040.7 285.068,2040.45C285.813,2040.07 286.174,2039.44 286.149,2038.57C286.125,2037.7 285.69,2036.72 284.846,2035.63C283.487,2033.87 281.546,2032.71 279.021,2032.14C276.988,2031.68 275.167,2031.87 273.556,2032.7C272.982,2032.99 272.484,2033.33 272.062,2033.72C271.897,2033.86 271.732,2033.89 271.566,2033.8C271.227,2033.59 270.96,2033.39 270.767,2033.18C270.665,2033.1 270.554,2033.09 270.434,2033.15L269.548,2033.61C269.488,2033.64 269.452,2033.66 269.44,2033.68C269.425,2033.7 269.459,2033.74 269.542,2033.79C270.432,2034.32 271.264,2034.92 272.039,2035.6C273.327,2036.74 274.425,2037.76 275.334,2038.67C276.772,2040.12 277.837,2041.29 278.53,2042.18C278.622,2042.3 278.61,2042.39 278.493,2042.44C278.105,2042.62 277.462,2042.7 276.563,2042.68C276.467,2042.68 276.411,2042.71 276.396,2042.77C276.37,2042.86 276.362,2042.94 276.371,2043.02ZM272.962,2034.21C272.834,2034.09 272.858,2033.95 273.034,2033.79C273.239,2033.61 273.534,2033.41 273.92,2033.22C274.879,2032.72 276.146,2032.61 277.721,2032.9C279.818,2033.29 281.581,2034.4 283.009,2036.25C283.654,2037.09 283.978,2037.82 283.981,2038.44C283.999,2038.99 283.789,2039.38 283.352,2039.6C282.906,2039.83 282.263,2039.88 281.423,2039.73C280.583,2039.58 279.712,2039.26 278.81,2038.78C277.797,2038.24 276.475,2037.28 274.843,2035.9C273.993,2035.17 273.367,2034.61 272.962,2034.21Z" style="fill:rgb(21,87,97);"/>
                    </g>
                    <g transform="matrix(-4.16667,0,0,4.16667,2106.02,-7845.07)">
                        <path d="M261.593,2044.42C262.925,2045.75 264.446,2046.73 266.157,2047.36C268.274,2048.13 270.184,2048.21 271.884,2047.59C272.682,2047.3 273.49,2046.75 274.307,2045.93C274.438,2045.8 274.573,2045.79 274.712,2045.88C275.632,2046.56 276.492,2047.23 277.293,2047.88C277.87,2048.35 278.346,2048.77 278.719,2049.14C279.388,2049.81 279.621,2050.21 279.418,2050.35L277.293,2051.78C277.23,2051.82 277.232,2051.86 277.3,2051.9C277.383,2051.98 277.505,2052.08 277.665,2052.19C277.742,2052.26 277.816,2052.28 277.887,2052.23L283.052,2048.76C283.131,2048.7 283.144,2048.65 283.093,2048.6C283.086,2048.59 283.028,2048.55 282.919,2048.47C282.81,2048.39 282.74,2048.33 282.708,2048.3C282.628,2048.24 282.541,2048.25 282.447,2048.31L281.648,2048.85C281.523,2048.93 281.401,2048.93 281.283,2048.84C277.821,2046.35 273.69,2043.16 268.889,2039.29C267.175,2037.91 265.809,2036.72 264.792,2035.71C264.599,2035.52 264.378,2035.46 264.129,2035.56C263.458,2035.82 263.032,2036.01 262.852,2036.13C262.727,2036.21 262.718,2036.31 262.826,2036.43C263.274,2036.9 263.933,2037.51 264.803,2038.24C265.37,2038.74 266.267,2039.46 267.495,2040.39C267.615,2040.47 267.687,2040.53 267.711,2040.57C267.736,2040.6 267.723,2040.62 267.674,2040.61C267.611,2040.6 267.517,2040.57 267.393,2040.52C265.979,2040 264.54,2039.75 263.076,2039.77C262.111,2039.78 261.358,2039.96 260.818,2040.33C260.207,2040.74 259.986,2041.36 260.153,2042.19C260.282,2042.85 260.762,2043.6 261.593,2044.42ZM263.415,2043.63C262.926,2043.15 262.62,2042.65 262.498,2042.13C262.375,2041.62 262.49,2041.25 262.842,2041.01C263.414,2040.62 264.111,2040.45 264.935,2040.49C266.159,2040.54 267.509,2040.97 268.984,2041.75C269.858,2042.22 271.456,2043.36 273.78,2045.19C273.898,2045.28 273.896,2045.39 273.773,2045.52C273.222,2046.09 272.668,2046.51 272.111,2046.78C271.326,2047.15 270.384,2047.23 269.285,2047.02C268.256,2046.84 267.244,2046.44 266.249,2045.85C265.254,2045.26 264.31,2044.52 263.415,2043.63Z" style="fill:rgb(21,87,97);"/>
                    </g>
                    <g transform="matrix(-4.16667,0,0,4.16667,2106.02,-7845.07)">
                        <path d="M257.251,2057.67C257.267,2057.72 257.304,2057.73 257.36,2057.72C258.011,2057.68 258.75,2057.5 259.575,2057.18C260.4,2056.86 261.023,2056.52 261.442,2056.16C261.602,2056.02 261.54,2055.84 261.253,2055.62C260.805,2055.27 259.685,2054.61 257.892,2053.64C255.699,2052.45 254.055,2051.43 252.961,2050.58C252.278,2050.04 252.143,2049.6 252.555,2049.25C253.212,2048.68 254.503,2048.58 256.427,2048.95C258.021,2049.26 259.48,2049.75 260.804,2050.4C261.685,2050.83 263.009,2051.61 264.778,2052.72C264.945,2052.81 265.085,2052.81 265.197,2052.72L266.203,2051.85C266.322,2051.75 266.304,2051.66 266.151,2051.57C265.1,2050.95 263.36,2049.93 260.93,2048.52C258.544,2047.14 255.33,2045.27 251.288,2042.93C250.339,2042.37 249.516,2041.82 248.819,2041.28C248.694,2041.18 248.688,2041.09 248.799,2040.99C249.009,2040.81 249.552,2040.51 250.427,2040.08C250.498,2040.04 250.521,2039.97 250.497,2039.87C250.466,2039.83 250.418,2039.76 250.35,2039.66C250.297,2039.57 250.211,2039.55 250.09,2039.59C249.686,2039.75 249.001,2040.07 248.033,2040.55C246.953,2041.08 246.308,2041.44 246.098,2041.62C245.924,2041.77 245.942,2041.9 246.154,2042.02C247.779,2042.91 250.061,2044.17 252.999,2045.8L257.943,2048.58C258.052,2048.65 258.126,2048.7 258.163,2048.74C258.193,2048.77 258.179,2048.79 258.121,2048.79C258.057,2048.79 257.945,2048.76 257.786,2048.72C256.317,2048.27 254.909,2048.03 253.56,2047.99C252.01,2047.94 250.921,2048.18 250.292,2048.72C249.496,2049.41 249.828,2050.32 251.289,2051.45C252.023,2052.03 253.659,2053.03 256.197,2054.47C257.408,2055.16 258.373,2055.78 259.093,2056.34C259.239,2056.45 259.264,2056.55 259.166,2056.64C258.789,2056.96 258.151,2057.19 257.252,2057.33C257.194,2057.33 257.17,2057.36 257.179,2057.41C257.188,2057.46 257.212,2057.55 257.251,2057.67Z" style="fill:rgb(21,87,97);"/>
                    </g>
                    <g transform="matrix(-4.16667,0,0,4.16667,2106.02,-7845.07)">
                        <path d="M239.948,2053.66C240.732,2054.16 241.392,2054.13 241.927,2053.57C242.325,2053.15 242.188,2052.72 241.516,2052.3C241.196,2052.09 240.852,2052 240.483,2052.03C240.115,2052.05 239.822,2052.17 239.604,2052.4C239.194,2052.84 239.308,2053.26 239.948,2053.66ZM252.7,2062.61C252.752,2062.66 252.798,2062.68 252.839,2062.66C253.473,2062.51 254.211,2062.21 255.053,2061.77C255.896,2061.33 256.497,2060.92 256.858,2060.54C256.989,2060.4 256.966,2060.28 256.79,2060.17C256.07,2059.71 254.648,2058.98 252.523,2057.97C249.073,2056.34 247.105,2055.36 246.617,2055.05C246.449,2054.95 246.43,2054.87 246.561,2054.83C247.349,2054.55 248.08,2054.35 248.754,2054.22C248.859,2054.21 248.903,2054.16 248.884,2054.09C248.883,2054.03 248.874,2053.95 248.856,2053.83C248.833,2053.78 248.775,2053.75 248.682,2053.75C247.566,2053.87 246.54,2054.08 245.603,2054.38C244.579,2054.71 243.982,2054.97 243.814,2055.14C243.727,2055.24 243.74,2055.32 243.852,2055.39C244.38,2055.72 245.699,2056.41 247.809,2057.46C248.694,2057.87 249.935,2058.45 251.532,2059.22C252.959,2059.9 253.96,2060.43 254.536,2060.8C254.696,2060.9 254.717,2061.01 254.599,2061.14C254.169,2061.59 253.51,2061.95 252.62,2062.22C252.53,2062.25 252.498,2062.3 252.523,2062.37C252.548,2062.43 252.607,2062.51 252.7,2062.61Z" style="fill:rgb(21,87,97);"/>
                    </g>
                    <g transform="matrix(-4.16667,0,0,4.16667,2106.02,-7845.07)">
                        <path d="M236.983,2065.55C237.196,2065.66 237.436,2065.68 237.704,2065.63C237.971,2065.57 238.184,2065.44 238.343,2065.24C238.666,2064.83 238.736,2064.32 238.552,2063.71C238.501,2063.55 238.522,2063.4 238.615,2063.28C239.043,2062.74 239.816,2062.36 240.936,2062.13C242.61,2061.78 244.683,2062.25 247.155,2063.55C248.109,2064.05 248.756,2064.61 249.094,2065.22C249.451,2065.87 249.407,2066.48 248.963,2067.04C248.3,2067.88 247.293,2068.48 245.942,2068.84C245.858,2068.85 245.828,2068.9 245.853,2069C245.877,2069.06 245.91,2069.13 245.954,2069.21C245.992,2069.27 246.057,2069.3 246.15,2069.28C247.139,2069.14 248.103,2068.85 249.041,2068.41C250.032,2067.95 250.747,2067.44 251.186,2066.88C251.695,2066.23 251.748,2065.49 251.343,2064.66C250.912,2063.78 250.036,2062.99 248.715,2062.3C246.251,2061.01 243.549,2060.73 240.606,2061.47C238.853,2061.9 237.598,2062.6 236.842,2063.56C236.518,2063.97 236.38,2064.37 236.427,2064.74C236.474,2065.11 236.659,2065.37 236.983,2065.55Z" style="fill:rgb(21,87,97);"/>
                    </g>
                    <g transform="matrix(-4.16667,0,0,4.16667,2106.02,-7845.07)">
                        <path d="M232.174,2073.12C232.364,2073.2 232.584,2073.21 232.837,2073.14C233.089,2073.07 233.263,2072.96 233.36,2072.81C233.599,2072.42 233.45,2071.91 232.912,2071.28C232.809,2071.15 232.803,2071.02 232.895,2070.87C233.167,2070.43 233.576,2070.12 234.121,2069.94C234.667,2069.76 235.188,2069.77 235.684,2069.98C236.542,2070.34 237.094,2070.92 237.34,2071.73C237.569,2072.46 237.764,2073.12 237.926,2073.72C238.286,2075 239.124,2075.92 240.443,2076.47C241.418,2076.88 242.41,2076.89 243.42,2076.51C244.357,2076.16 245.092,2075.55 245.626,2074.7C246.132,2073.88 246.352,2073.14 246.286,2072.46C246.219,2071.84 245.942,2071.42 245.455,2071.22C244.904,2070.99 244.481,2071.11 244.187,2071.59C243.966,2071.94 244.318,2072.55 245.244,2073.42C245.342,2073.52 245.374,2073.63 245.339,2073.76C245.304,2073.89 245.21,2074.08 245.058,2074.32C244.727,2074.85 244.239,2075.22 243.593,2075.41C242.948,2075.61 242.35,2075.59 241.799,2075.36C240.86,2074.97 240.268,2074.33 240.023,2073.45C239.895,2073.01 239.717,2072.4 239.489,2071.6C239.179,2070.4 238.455,2069.56 237.317,2069.09C236.36,2068.69 235.396,2068.64 234.423,2068.94C233.45,2069.24 232.711,2069.8 232.205,2070.61C231.372,2071.95 231.361,2072.78 232.174,2073.12Z" style="fill:rgb(21,87,97);"/>
                    </g>
                    <g transform="matrix(-4.16667,0,0,4.16667,2106.02,-7845.07)">
                        <path d="M379.093,2162.26C379.052,2162.3 379.073,2162.37 379.154,2162.44C379.488,2162.72 380.132,2163.03 381.084,2163.37C382.037,2163.71 382.721,2163.88 383.136,2163.88C383.329,2163.88 383.425,2163.8 383.425,2163.64C383.425,2162.54 383.298,2161.31 383.045,2159.94C383.015,2159.76 383.04,2159.67 383.121,2159.67C383.192,2159.67 383.263,2159.74 383.334,2159.89C383.77,2160.81 384.423,2161.65 385.295,2162.42C385.903,2162.96 386.323,2163.3 386.556,2163.44C387.043,2163.74 387.564,2163.88 388.122,2163.88C389.003,2163.88 389.718,2163.51 390.265,2162.76C390.812,2162.02 391.086,2161 391.086,2159.71C391.086,2157.63 390.204,2155.8 388.441,2154.21C387.022,2152.94 385.36,2152.3 383.455,2152.3C382.776,2152.3 382.133,2152.37 381.525,2152.51C381.292,2152.56 381.135,2152.51 381.054,2152.36C380.902,2152.04 380.81,2151.75 380.78,2151.49C380.75,2151.38 380.664,2151.32 380.522,2151.32L379.473,2151.32C379.402,2151.32 379.356,2151.32 379.336,2151.33C379.306,2151.35 379.311,2151.39 379.351,2151.47C379.757,2152.3 380.066,2153.18 380.278,2154.09C380.623,2155.61 380.881,2156.96 381.054,2158.13C381.327,2159.98 381.464,2161.43 381.464,2162.49C381.464,2162.63 381.398,2162.7 381.267,2162.69C380.821,2162.67 380.223,2162.46 379.473,2162.06C379.392,2162.01 379.326,2162.01 379.275,2162.06C379.194,2162.12 379.133,2162.19 379.093,2162.26ZM381.966,2153.32C381.935,2153.16 382.047,2153.05 382.3,2153C382.594,2152.93 382.969,2152.9 383.425,2152.9C384.56,2152.9 385.7,2153.36 386.845,2154.29C388.365,2155.53 389.125,2157.25 389.125,2159.43C389.125,2160.42 388.922,2161.18 388.517,2161.71C388.173,2162.18 387.742,2162.42 387.225,2162.42C386.698,2162.42 386.128,2162.17 385.515,2161.68C384.902,2161.18 384.372,2160.54 383.927,2159.73C383.42,2158.84 382.928,2157.45 382.452,2155.57C382.209,2154.58 382.047,2153.83 381.966,2153.32Z" style="fill:rgb(21,87,97);"/>
                    </g>
                    <g transform="matrix(-4.16667,0,0,4.16667,2106.02,-7845.07)">
                        <path d="M365.58,2162.42C365.539,2162.49 365.549,2162.54 365.61,2162.57C366.097,2162.92 366.776,2163.23 367.647,2163.5C368.478,2163.76 369.203,2163.88 369.821,2163.88C370.023,2163.88 370.125,2163.78 370.125,2163.59C370.125,2163.13 369.937,2161.95 369.562,2160.04C369.147,2157.92 368.939,2156.41 368.939,2155.51C368.939,2154.24 369.243,2153.61 369.851,2153.61C370.601,2153.61 371.554,2154.38 372.709,2155.94C373.459,2156.94 374.062,2158.19 374.518,2159.68C374.963,2161.12 375.318,2162.38 375.582,2163.49C375.622,2163.65 375.734,2163.74 375.916,2163.74L376.919,2163.74C377.112,2163.74 377.193,2163.66 377.162,2163.51C376.929,2162.47 376.575,2160.76 376.098,2158.37C375.774,2156.41 375.612,2154.94 375.612,2153.97C375.612,2153.8 375.673,2153.74 375.794,2153.78C376.311,2153.97 376.848,2154.25 377.406,2154.62C377.487,2154.67 377.563,2154.67 377.634,2154.62C377.674,2154.6 377.735,2154.55 377.816,2154.47C377.857,2154.43 377.846,2154.37 377.786,2154.31C377.421,2154 376.833,2153.61 376.022,2153.14C375.242,2152.7 374.659,2152.41 374.274,2152.28C374.062,2152.21 373.874,2152.18 373.712,2152.18C373.58,2152.18 373.524,2152.33 373.545,2152.64C373.727,2154.43 373.904,2155.75 374.077,2156.61C374.107,2156.76 374.122,2156.87 374.122,2156.94C374.112,2157.01 374.087,2157.03 374.046,2157C374.006,2156.97 373.945,2156.88 373.864,2156.74C373.124,2155.44 372.324,2154.4 371.462,2153.63C370.378,2152.64 369.456,2152.15 368.696,2152.15C367.53,2152.15 366.948,2152.97 366.948,2154.62C366.948,2155.45 367.186,2157.11 367.662,2159.61C367.895,2160.8 368.012,2161.8 368.012,2162.62C368.012,2162.82 367.916,2162.91 367.723,2162.87C366.983,2162.73 366.375,2162.52 365.899,2162.23C365.828,2162.18 365.762,2162.19 365.701,2162.26C365.681,2162.27 365.641,2162.33 365.58,2162.42Z" style="fill:rgb(21,87,97);"/>
                    </g>
                    <g transform="matrix(-4.16667,0,0,4.16667,2106.02,-7845.07)">
                        <path d="M352.143,2145.1C352.467,2146.77 352.862,2148.98 353.328,2151.74C353.724,2154.11 354.053,2156.24 354.316,2158.13C354.61,2160.2 354.757,2161.66 354.757,2162.49C354.757,2162.62 354.686,2162.69 354.544,2162.69C354.149,2162.69 353.536,2162.47 352.705,2162.03C352.624,2161.99 352.563,2161.99 352.523,2162.03C352.452,2162.08 352.396,2162.14 352.356,2162.21C352.325,2162.25 352.345,2162.3 352.416,2162.38C353.075,2163 354.332,2163.49 356.186,2163.86C356.531,2163.93 356.708,2163.9 356.718,2163.78C356.728,2163.68 356.708,2163.22 356.657,2162.38C356.617,2161.68 356.51,2160.86 356.338,2159.94C356.318,2159.84 356.313,2159.76 356.323,2159.71C356.333,2159.67 356.353,2159.66 356.384,2159.7C356.414,2159.73 356.455,2159.8 356.505,2159.89C356.83,2160.6 357.483,2161.42 358.466,2162.36C359.52,2163.37 360.503,2163.88 361.415,2163.88C362.256,2163.88 362.955,2163.57 363.513,2162.93C364.151,2162.21 364.47,2161.2 364.47,2159.92C364.47,2157.69 363.558,2155.86 361.734,2154.44C360.113,2153.19 358.461,2152.56 356.779,2152.56C356.303,2152.56 355.973,2152.59 355.791,2152.64C355.568,2152.69 355.441,2152.66 355.411,2152.54C355.239,2151.68 355.051,2150.42 354.848,2148.74C354.707,2147.53 354.636,2146.66 354.636,2146.15C354.636,2146.01 354.717,2145.94 354.879,2145.94C355.406,2145.94 356.156,2146.07 357.128,2146.32C357.22,2146.35 357.28,2146.32 357.311,2146.25C357.341,2146.17 357.382,2146.08 357.432,2145.96C357.453,2145.9 357.402,2145.85 357.28,2145.81C356.865,2145.66 356.069,2145.46 354.894,2145.2C353.658,2144.93 352.842,2144.79 352.447,2144.79C352.204,2144.79 352.102,2144.9 352.143,2145.1ZM355.593,2153.53C355.593,2153.42 355.674,2153.34 355.836,2153.29C355.999,2153.24 356.303,2153.22 356.748,2153.22C358.461,2153.22 359.87,2153.97 360.974,2155.48C361.917,2156.77 362.388,2158.16 362.388,2159.63C362.388,2160.52 362.2,2161.21 361.825,2161.71C361.481,2162.16 361.045,2162.38 360.518,2162.38C359.971,2162.38 359.383,2162.14 358.755,2161.67C358.086,2161.17 357.534,2160.53 357.098,2159.73C356.683,2158.99 356.267,2157.61 355.852,2155.57C355.74,2155.05 355.654,2154.37 355.593,2153.53Z" style="fill:rgb(21,87,97);"/>
                    </g>
                    <g transform="matrix(-4.16667,0,0,4.16667,2106.02,-7845.07)">
                        <path d="M323.581,2147.41C323.622,2147.5 323.668,2147.54 323.718,2147.54L325.117,2147.54C325.431,2147.54 325.618,2147.76 325.679,2148.19C325.872,2149.74 326.044,2151.87 326.196,2154.57C326.348,2156.41 326.505,2158.41 326.667,2160.58C326.779,2162.24 326.657,2163.08 326.302,2163.08L324.493,2163.08C324.402,2163.08 324.372,2163.12 324.402,2163.2C324.402,2163.22 324.407,2163.29 324.417,2163.39C324.428,2163.5 324.433,2163.57 324.433,2163.61C324.453,2163.69 324.504,2163.74 324.585,2163.74L330.771,2163.74C330.923,2163.74 330.999,2163.69 330.999,2163.61C330.999,2163.57 330.994,2163.5 330.984,2163.39C330.974,2163.29 330.969,2163.22 330.969,2163.2C330.938,2163.12 330.872,2163.08 330.771,2163.08L329.403,2163.08C329.19,2163.08 329.069,2162.97 329.038,2162.76C328.866,2160.84 328.679,2158.71 328.476,2156.4C328.263,2154.36 328.096,2152.53 327.974,2150.91C327.954,2150.67 327.989,2150.55 328.081,2150.55C328.152,2150.55 328.233,2150.63 328.324,2150.78C330.351,2154.42 332.352,2157.86 334.328,2161.09C334.804,2161.91 335.351,2162.84 335.97,2163.88C336.071,2164.03 336.157,2164.1 336.228,2164.1C336.38,2164.1 336.471,2164.03 336.502,2163.91C337.373,2161.62 338.265,2159.25 339.177,2156.79C339.39,2155.96 340.099,2153.96 341.305,2150.78C341.356,2150.63 341.416,2150.56 341.487,2150.56C341.568,2150.56 341.629,2150.65 341.67,2150.83C342.126,2152.7 342.551,2155.11 342.947,2158.08C342.967,2158.24 343.104,2159.17 343.357,2160.89C343.57,2162.35 343.423,2163.08 342.916,2163.08L340.742,2163.08C340.631,2163.08 340.591,2163.11 340.621,2163.18C340.621,2163.21 340.626,2163.28 340.636,2163.38C340.646,2163.48 340.651,2163.56 340.651,2163.61C340.672,2163.69 340.712,2163.74 340.773,2163.74L346.275,2163.74C346.407,2163.74 346.473,2163.7 346.473,2163.64C346.463,2163.55 346.443,2163.42 346.412,2163.25C346.382,2163.13 346.316,2163.08 346.215,2163.08L344.999,2163.08C344.745,2163.08 344.593,2162.89 344.543,2162.52C344.391,2161.41 344.016,2159.04 343.418,2155.41C343.205,2154.4 342.896,2152.64 342.491,2150.14C342.47,2149.99 342.46,2149.84 342.46,2149.7C342.46,2148.76 342.871,2148.11 343.691,2147.75C343.843,2147.68 344.497,2147.61 345.652,2147.54C345.743,2147.54 345.789,2147.51 345.789,2147.44C345.748,2147.34 345.728,2147.19 345.728,2146.98C345.698,2146.91 345.642,2146.88 345.561,2146.88L340.925,2146.88C340.753,2146.88 340.641,2146.94 340.591,2147.07C339.881,2148.72 339.217,2150.41 338.599,2152.13C337.14,2156.12 336.101,2159.03 335.483,2160.86C335.382,2161.16 335.245,2161.17 335.073,2160.89C334.009,2159.02 332.859,2157.02 331.622,2154.87C330.254,2152.44 328.79,2149.85 327.229,2147.12C327.128,2146.96 326.971,2146.88 326.758,2146.88L323.718,2146.88C323.607,2146.88 323.561,2146.91 323.581,2146.98L323.581,2147.41Z" style="fill:rgb(21,87,97);"/>
                    </g>
                    <g transform="matrix(-4.16667,0,0,4.16667,2106.02,-7845.07)">
                        <path d="M310.813,2156.53C310.813,2157.69 311.178,2158.82 311.908,2159.94C312.556,2160.95 313.407,2161.82 314.461,2162.54C315.779,2163.44 317.025,2163.88 318.2,2163.88C319.518,2163.88 320.562,2163.46 321.332,2162.62C321.98,2161.9 322.305,2160.92 322.305,2159.66C322.305,2157.64 321.276,2155.77 319.219,2154.04C317.729,2152.78 316.224,2152.15 314.704,2152.15C313.428,2152.15 312.46,2152.53 311.801,2153.28C311.142,2154.03 310.813,2155.11 310.813,2156.53ZM313.063,2156.79C313.063,2155.39 313.311,2154.43 313.808,2153.88C314.274,2153.37 314.907,2153.12 315.708,2153.12C316.498,2153.12 317.233,2153.37 317.912,2153.88C318.641,2154.43 319.214,2155.23 319.629,2156.3C320.004,2157.27 320.192,2158.28 320.192,2159.34C320.192,2160.54 319.974,2161.42 319.538,2161.98C319.031,2162.63 318.292,2162.95 317.319,2162.95C316.468,2162.95 315.723,2162.7 315.084,2162.18C313.737,2161.11 313.063,2159.31 313.063,2156.79Z" style="fill:rgb(21,87,97);"/>
                    </g>
                    <g transform="matrix(-4.16667,0,0,4.16667,2106.02,-7845.07)">
                        <path d="M298.501,2152.9C298.501,2153.14 298.633,2153.37 298.896,2153.58C299.19,2153.82 299.534,2153.94 299.93,2153.94C300.406,2153.94 300.973,2153.89 301.632,2153.78C301.794,2153.75 301.931,2153.78 302.043,2153.85C302.701,2154.32 303.365,2155.01 304.034,2155.94C304.956,2157.23 305.559,2158.5 305.843,2159.77C306.005,2160.47 306.223,2161.7 306.496,2163.49C306.527,2163.65 306.638,2163.74 306.831,2163.74L308.244,2163.74C308.437,2163.74 308.518,2163.66 308.487,2163.51C308.254,2162.47 307.9,2160.76 307.423,2158.37C307.099,2156.41 306.937,2154.94 306.937,2153.97C306.937,2153.81 306.988,2153.74 307.089,2153.75C307.525,2153.89 308.072,2154.18 308.731,2154.62C308.812,2154.68 308.878,2154.69 308.928,2154.65C308.979,2154.62 309.05,2154.56 309.141,2154.47C309.182,2154.43 309.171,2154.37 309.111,2154.31C308.199,2153.54 307.15,2152.92 305.964,2152.44C305.549,2152.26 305.26,2152.18 305.098,2152.18C304.946,2152.18 304.87,2152.25 304.87,2152.41C304.87,2152.64 304.885,2152.85 304.915,2153.05C305.067,2154.5 305.23,2155.72 305.402,2156.69C305.452,2156.91 305.463,2157.03 305.432,2157.05C305.382,2157.01 305.311,2156.91 305.219,2156.74C304.682,2155.71 303.862,2154.68 302.757,2153.66C301.683,2152.65 300.664,2152.15 299.702,2152.15C298.901,2152.15 298.501,2152.4 298.501,2152.9Z" style="fill:rgb(21,87,97);"/>
                    </g>
                    <g transform="matrix(-4.16667,0,0,4.16667,2106.02,-7845.07)">
                        <path d="M288.058,2153.41C288.058,2153.51 288.205,2153.66 288.499,2153.85C290.394,2155.14 292.801,2156.39 295.719,2157.62C295.891,2157.68 295.998,2157.78 296.038,2157.93C296.099,2158.17 296.13,2158.54 296.13,2159.05C296.13,2160.13 295.821,2160.97 295.202,2161.56C294.655,2162.07 293.976,2162.33 293.166,2162.33C291.879,2162.33 290.592,2161.87 289.305,2160.94C289.234,2160.88 289.163,2160.87 289.092,2160.91C289.061,2160.93 289.001,2160.99 288.909,2161.09C288.859,2161.16 288.859,2161.22 288.909,2161.26C289.295,2161.72 289.872,2162.16 290.642,2162.59C292.183,2163.45 293.596,2163.88 294.883,2163.88C295.765,2163.88 296.505,2163.48 297.102,2162.67C297.761,2161.77 298.09,2160.56 298.09,2159.02C298.09,2156.97 297.148,2155.19 295.263,2153.68C293.986,2152.66 292.841,2152.15 291.828,2152.15C290.379,2152.15 289.583,2152.58 289.442,2153.43C289.411,2153.56 289.315,2153.63 289.153,2153.63C289.102,2153.63 288.963,2153.53 288.735,2153.34C288.507,2153.14 288.367,2153.05 288.317,2153.07C288.144,2153.12 288.058,2153.23 288.058,2153.41ZM291.266,2154.6C291.245,2154.26 291.382,2153.96 291.676,2153.7C291.97,2153.45 292.314,2153.32 292.71,2153.32C293.449,2153.32 294.067,2153.53 294.564,2153.94C295.152,2154.41 295.567,2155.38 295.81,2156.84C295.831,2156.94 295.821,2157.01 295.78,2157.02C295.75,2157.03 295.689,2157.02 295.598,2156.99C294.007,2156.36 292.598,2155.67 291.372,2154.9C291.321,2154.87 291.286,2154.77 291.266,2154.6Z" style="fill:rgb(21,87,97);"/>
                    </g>
                </g>
            </g>
        </g>
    </g>
</svg>
