<?xml version="1.0" encoding="UTF-8" standalone="no"?>
<!DOCTYPE svg PUBLIC "-//W3C//DTD SVG 1.1//EN" "http://www.w3.org/Graphics/SVG/1.1/DTD/svg11.dtd">
<svg width="100%" height="100%" viewBox="0 0 761 510" version="1.1" xmlns="http://www.w3.org/2000/svg" xmlns:xlink="http://www.w3.org/1999/xlink" xml:space="preserve" xmlns:serif="http://www.serif.com/" style="fill-rule:evenodd;clip-rule:evenodd;stroke-linejoin:round;stroke-miterlimit:2;">
    <g transform="matrix(1,0,0,1,-363.359,-2644.83)">
        <g id="emblems">
            <g transform="matrix(2.15039,0,0,2.15039,-2528.81,497.422)">
                <g transform="matrix(4.16667,0,0,4.16667,-714.26,-12854.2)">
                    <path d="M523.729,3356.51L523.791,3357.19L527.763,3361.54L527.949,3362.22L527.701,3363.09L526.832,3363.71L525.032,3364.39L522.302,3365.39L519.074,3366.32L511.503,3367.56L511.441,3369.79L517.026,3368.74L521.06,3367.5L525.095,3365.95L527.949,3364.45L528.88,3363.53L529.253,3362.84L529.377,3362.22L529.004,3361.66L528.632,3360.86L527.577,3359.68L526.646,3358.93L525.529,3357.82L524.66,3357.19L524.164,3356.76L523.729,3356.51Z" style="fill:rgb(21,87,97);stroke:rgb(21,87,97);stroke-width:0.11px;"/>
                </g>
                <g transform="matrix(4.16667,0,0,4.16667,-714.26,-12854.2)">
                    <path d="M526.693,3357.58L526.724,3358.17L528.182,3359.16L529.299,3359.78L530.168,3360.5L531.285,3361.12L531.937,3361.74L532.092,3362.14L532.123,3362.67L531.44,3363.57L530.634,3364.22L529.144,3365.37L527.499,3366.52L525.762,3367.48L523.62,3368.69L521.976,3369.41L520.424,3370.03L518.593,3370.68L517.321,3371.3L517.724,3373.66L523.465,3370.89L526.6,3368.94L529.361,3367.08L531.999,3364.87L533.24,3363.32L533.489,3362.76L533.426,3362.08L533.178,3361.52L532.837,3361.18L532.309,3360.72L531.44,3360L529.765,3359.07L528.461,3358.39L526.693,3357.58Z" style="fill:rgb(21,87,97);stroke:rgb(21,87,97);stroke-width:0.11px;"/>
                </g>
                <g transform="matrix(4.16667,0,0,4.16667,-714.26,-12854.2)">
                    <path d="M533.613,3352.96L531.627,3352.99L530.82,3353.24L530.261,3353.58L529.423,3353.98L528.834,3354.45L528.368,3355.01L528.151,3355.47L528.089,3355.97L528.71,3356.53L530.013,3357.24L535.04,3359.75L535.94,3360.31L536.902,3361.37L537.15,3361.86L537.212,3362.27L537.212,3362.7L536.995,3363.17L536.468,3364.07L535.754,3365.09L534.637,3366.15L533.085,3367.61L530.944,3369.25L528.803,3370.77L526.755,3371.98L525.11,3372.88L522.162,3374.34L518.904,3375.52L516.7,3376.23L513.939,3377.04L514.342,3378.93L515.056,3380.17L516.018,3380.95L516.825,3381.45L523.745,3377.47L528.492,3374.28L532.744,3371.11L535.63,3368.44L537.337,3366.83L538.547,3365.12L538.919,3364.1L538.981,3363.04L538.702,3361.65L538.081,3360.9L537.305,3359.94L536.188,3359.13L533.985,3358.2L532.34,3357.43L530.82,3356.81L529.641,3356.16L529.113,3355.57L529.113,3355.04L529.392,3354.85L529.858,3354.54L530.51,3354.2L531.037,3353.89L531.689,3353.61L532.247,3353.45L532.589,3353.45L532.868,3353.42L533.209,3353.24L533.613,3352.96Z" style="fill:rgb(21,87,97);stroke:rgb(21,87,97);stroke-width:0.11px;"/>
                </g>
                <g transform="matrix(4.16667,0,0,4.16667,-714.26,-12854.2)">
                    <path d="M544.861,3354.17L544.086,3354.79L547.406,3354.79L547.406,3354.66L556.995,3354.63L559.726,3354.73L561.463,3354.94L562.705,3355.19L563.729,3355.22L565.498,3355.53L566.459,3355.94L567.825,3356.47L568.663,3356.99L569.718,3357.89L570.587,3358.76L571.394,3359.72L572.138,3360.68L573.1,3361.83L573.907,3363.11L574.279,3363.7L576.234,3364.01L578.065,3364.1L575.459,3361.31L571.828,3357.61L570.494,3356.71L569.066,3355.75L567.577,3355.01L565.622,3354.51L564.349,3354.29L563.232,3354.14L561.494,3354.01L558.795,3353.89L551.719,3353.76L551.688,3353.92L548.492,3353.95L548.461,3354.14L546.196,3354.01L544.861,3354.17Z" style="fill:rgb(21,87,97);stroke:rgb(21,87,97);stroke-width:0.11px;"/>
                </g>
                <g transform="matrix(4.16667,0,0,4.16667,-714.26,-12854.2)">
                    <path d="M541.385,3355.51L540.716,3355.93L541.97,3356.14L544.061,3356.1L544.187,3356.22L547.658,3356.18L547.616,3356.43L550.543,3356.39L550.418,3356.56L552.509,3356.51L552.551,3356.72L554.098,3356.68L554.181,3356.81L555.394,3356.76L555.499,3356.97L556.879,3356.83L556.879,3357.08L558.029,3357.06L558.092,3357.22L559.158,3357.18L559.158,3357.35L559.618,3357.31L559.681,3357.45L560.203,3357.45L560.224,3357.56L561.228,3357.73L561.813,3357.91L562.65,3358.21L563.423,3358.58L564.26,3358.98L564.824,3359.42L565.619,3360.19L566.163,3360.49L566.727,3361.24L567.313,3362.05L568.128,3363.14L568.797,3364.27L569.466,3365.34L569.863,3366.01L570.407,3366.53L571.16,3366.76L571.724,3366.88L572.247,3366.97L572.247,3367.07L573.481,3367.11L573.836,3367.2L573.753,3367.03L573.397,3366.57L573,3365.9L572.582,3365.3L571.913,3364.5L571.264,3363.75L570.595,3362.93L569.654,3361.87L568.023,3360.11L567.459,3359.69L566.664,3359.11L565.514,3358.33L564.051,3357.52L563.026,3357.12L562.022,3356.83L561.102,3356.66L560.266,3356.41L559.555,3356.43L558.614,3356.28L557.464,3356.12L555.896,3356.01L554.411,3355.89L554.411,3355.72L550.627,3355.72L550.564,3355.59L541.385,3355.51Z" style="fill:rgb(21,87,97);stroke:rgb(21,87,97);stroke-width:0.11px;"/>
                </g>
                <g transform="matrix(4.16667,0,0,4.16667,-714.26,-12854.2)">
                    <path d="M532.419,3353.33L532.106,3353.62L531.959,3353.89L531.834,3354.18L531.75,3354.27L531.771,3354.48L531.876,3354.56L531.939,3354.79L532.231,3354.85L532.419,3355.08L532.524,3355.19L532.817,3355.4L533.109,3355.63L533.319,3355.82L533.862,3356.02L534.364,3356.15L534.845,3356.32L535.535,3356.46L536.497,3356.67L537.438,3356.74L538.358,3356.88L539.403,3356.99L540.658,3357.15L541.745,3357.26L543.627,3357.4L546.199,3357.55L548.478,3357.55L548.541,3357.74L550.548,3357.74L550.569,3357.86L551.823,3357.8L551.907,3357.99L553.057,3357.99L553.057,3358.18L554.082,3358.16L555.754,3358.6L557.218,3358.97L558.033,3359.29L559.246,3359.77L560.333,3360.27L561.504,3361.08L562.78,3362.11L564.285,3363.57L565.373,3365.27L566.021,3366.46L566.732,3368.24L567.443,3370.05L568.028,3372L568.091,3372.38L568.404,3373.38L568.614,3374.42L568.927,3375.41L569.178,3376.49L569.471,3377.64L569.847,3379.21L570.098,3380.15L569.095,3380.15L568.216,3379.92L567.631,3379.59L566.941,3379L566.376,3378.31L565.874,3377.54L565.582,3377.02L565.582,3376.24L565.394,3376.24L565.394,3375.18L565.289,3375.11L565.268,3373.88L565.122,3373.99L565.122,3373.21L565.059,3373.19L564.996,3372.1L564.829,3372.17L564.892,3371.39L564.704,3371.37L564.745,3370.56L564.599,3370.58L564.62,3369.68L564.494,3369.2L564.202,3368.65L563.993,3367.63L563.554,3366.75L563.156,3365.93L562.696,3365.2L562.341,3364.74L561.902,3364.22L561.358,3363.64L560.71,3363.13L559.811,3362.4L559.1,3362L558.514,3361.71L558.075,3361.42L557.427,3361.25L556.904,3360.85L555.838,3360.52L554.667,3360.1L552.869,3359.7L551.489,3359.45L551.447,3359.29L550.694,3359.35L550.632,3359.16L549.753,3359.2L549.712,3359.06L548.541,3359.01L548.52,3358.93L547.411,3358.95L547.432,3358.76L546.241,3358.78L546.157,3358.6L544.61,3358.72L544.589,3358.51L543.062,3358.53L543.104,3358.37L541.912,3358.43L541.891,3358.26L540.867,3358.22L540.783,3358.05L539.675,3358.09L539.675,3358.01L538.713,3357.97L537.689,3357.8L536.539,3357.59L535.556,3357.59L535.493,3357.4L534.887,3357.49L534.594,3357.32L534.197,3357.13L533.779,3356.99L533.151,3356.78L532.67,3356.46L532.106,3356.07L531.771,3355.79L531.353,3355.38L531.228,3355.17L531.039,3354.98L530.935,3354.89L530.956,3354.16L531.165,3354.04L531.479,3353.81L531.771,3353.51L532.043,3353.41L532.252,3353.28L532.419,3353.33Z" style="fill:rgb(21,87,97);stroke:rgb(21,87,97);stroke-width:0.11px;"/>
                </g>
                <g transform="matrix(4.16667,0,0,4.16667,-714.26,-12854.2)">
                    <path d="M510.603,3340.14L518.167,3334.27L522.007,3334.03L526.894,3327.81L530.967,3330.02L534.982,3324.72L536.728,3326.59L538.182,3328.33L539.579,3330.08L541.266,3331.82L540.335,3332.06L538.299,3330.49L536.495,3328.86L535.564,3327.98L535.098,3327.75L534.691,3329.32L534.342,3330.78L533.935,3332.17L533.586,3331.12L532.946,3332.17L532.422,3333.34L532.073,3334.09L531.84,3332.93L531.666,3331.42L531.084,3331.82L527.302,3329.26L522.763,3334.91L522.007,3335.2L519.912,3335.37L518.516,3335.49L517.236,3336.65L516.014,3337.53L514.617,3338.69L513.163,3339.74L511.65,3340.96L510.603,3340.14Z" style="fill:rgb(21,87,97);stroke:rgb(21,87,97);stroke-width:0.11px;"/>
                </g>
                <g transform="matrix(4.16667,0,0,4.16667,-714.26,-12854.2)">
                    <path d="M533.03,3351.28L533.116,3351.75L534.62,3351.62L537.199,3352.09L539.391,3351.36L545.624,3349.64L550.266,3345.9L555.597,3343.24L564.537,3333.52L569.351,3328.45L578.679,3332.84L579.066,3332.66L569.437,3326.43L563.764,3332.06L562.474,3333.44L554.221,3341.52L544.206,3348.91L533.116,3351.02L533.03,3351.28Z" style="fill:rgb(21,87,97);stroke:rgb(21,87,97);stroke-width:0.11px;"/>
                </g>
                <g transform="matrix(4.16667,0,0,4.16667,-714.26,-12854.2)">
                    <path d="M521.87,3333.91L522.44,3333.11L518.679,3328.45L513.729,3333.38L512.154,3334.38L506.579,3335.45L505.679,3335.93L502.016,3332.28L494.266,3337.26L501.854,3333.75L503.004,3334.7L505.054,3337.25L508.654,3340.95L513.304,3345.95L517.104,3347.65L521.804,3351.25L528.204,3352.8L531.204,3352.45L522.254,3350.2L518.104,3347.1L513.954,3344.55L506.554,3336.95L507.654,3336.4L510.504,3335.7L512.004,3335.35L513.854,3334.55L515.504,3332.9L515.804,3334.15L516.354,3332.95L516.604,3333.55L517.554,3332.1L517.754,3333.45L518.754,3330.1L521.87,3333.91Z" style="fill:rgb(21,87,97);stroke:rgb(21,87,97);stroke-width:0.11px;"/>
                </g>
                <g transform="matrix(4.16667,0,0,4.16667,-714.26,-12854.2)">
                    <path d="M538.039,3333.5L537.176,3333.71L537.238,3333.76L534.938,3334.51L531.888,3337.95L526.838,3340.31L520.138,3346.11L521.438,3346.91L527.638,3340.95L532.888,3339.2L535.838,3335.51L537.738,3335.01L537.438,3339.26L542.288,3333.95L542.438,3335.61L544.988,3332.11L545.288,3333.81L547.488,3329.51L558.09,3337.71L559.301,3336.7L547.113,3326.78L545.538,3328.11L543.313,3330.16L540.638,3332.56L538.088,3333.56L538.039,3333.5Z" style="fill:rgb(21,87,97);stroke:rgb(21,87,97);stroke-width:0.11px;"/>
                </g>
            </g>
        </g>
    </g>
</svg>
