<?xml version="1.0" encoding="UTF-8" standalone="no"?>
<!DOCTYPE svg PUBLIC "-//W3C//DTD SVG 1.1//EN" "http://www.w3.org/Graphics/SVG/1.1/DTD/svg11.dtd">
<svg width="100%" height="100%" viewBox="0 0 479 500" version="1.1" xmlns="http://www.w3.org/2000/svg" xmlns:xlink="http://www.w3.org/1999/xlink" xml:space="preserve" xmlns:serif="http://www.serif.com/" style="fill-rule:evenodd;clip-rule:evenodd;stroke-linejoin:round;stroke-miterlimit:1.5;">
    <g transform="matrix(1,0,0,1,-2678,-824)">
        <g transform="matrix(1,0,0,1,1621,-151)">
            <g transform="matrix(1,0,0,1,849.234,650.128)">
                <g transform="matrix(1.16087,0,0,1.06604,-71.7193,-58.8015)">
                    <path d="M445.831,406.093C538.182,406.093 613.057,489.515 613.057,592.135C613.057,694.755 538.182,778.177 445.831,778.177C353.48,778.177 278.604,694.755 278.604,592.135C278.604,489.515 353.48,406.093 445.831,406.093Z" style="fill:rgb(214,214,214);stroke:rgb(36,148,165);stroke-width:5.61px;stroke-dasharray:5.61,5.61;"/>
                </g>
                <g transform="matrix(1.29633,0,0,1.21657,-132.114,-147.938)">
                    <path d="M445.831,404.753C538.804,404.753 614.096,488.824 614.096,592.135C614.096,695.446 538.804,779.516 445.831,779.516C352.858,779.516 277.566,695.446 277.566,592.135C277.566,488.824 352.858,404.753 445.831,404.753Z" style="fill:none;stroke:rgb(36,148,165);stroke-width:4.97px;"/>
                </g>
            </g>
            <g transform="matrix(0.376097,0,0,0.376097,867.184,700.916)">
                <g transform="matrix(1.01894,-0.204578,0.199471,0.993507,-1429.29,-205.552)">
                    <path d="M2451,1870.75L2451,2208.25C2451,2301.39 2377.27,2377 2286.46,2377L1953.54,2377C1862.73,2377 1789,2301.39 1789,2208.25L1789,1870.75C1789,1777.61 1862.73,1702 1953.54,1702L2286.46,1702C2377.27,1702 2451,1777.61 2451,1870.75Z" style="fill:rgb(155,223,233);stroke:rgb(36,148,165);stroke-width:59.37px;stroke-linecap:round;"/>
                </g>
                <g transform="matrix(1.35354,0.233612,-0.223422,1.2945,-330.737,-905.742)">
                    <path d="M1324.51,1305L1377.04,1436.51C1378.64,1440.51 1381.39,1443.98 1384.95,1446.5C1388.52,1449.02 1392.75,1450.49 1397.15,1450.73L1541.84,1458.74L1429.62,1548.03C1426.21,1550.75 1423.67,1554.36 1422.31,1558.44C1420.94,1562.52 1420.82,1566.9 1421.94,1571.05L1458.83,1707.51L1336.94,1631.18C1333.23,1628.86 1328.92,1627.62 1324.51,1627.62C1320.1,1627.62 1315.79,1628.86 1312.08,1631.18L1190.19,1707.51L1227.08,1571.05C1228.2,1566.9 1228.08,1562.52 1226.71,1558.44C1225.35,1554.36 1222.81,1550.75 1219.4,1548.03L1107.18,1458.74L1251.87,1450.73C1256.27,1450.49 1260.5,1449.02 1264.07,1446.5C1267.63,1443.98 1270.38,1440.51 1271.98,1436.51L1324.51,1305Z" style="fill:rgb(198,192,191);stroke:rgb(36,148,165);stroke-width:12.37px;stroke-linecap:round;"/>
                </g>
                <g transform="matrix(0.993664,0.112395,-0.112395,0.993664,165.551,-141.513)">
                    <ellipse cx="1061.51" cy="1353" rx="20.49" ry="34" style="fill:rgb(205,239,244);stroke:rgb(36,148,165);stroke-width:9.42px;stroke-linecap:round;"/>
                </g>
                <g transform="matrix(0.993664,0.112395,-0.112395,0.993664,291.746,-127.239)">
                    <ellipse cx="1061.51" cy="1353" rx="20.49" ry="34" style="fill:rgb(205,239,244);stroke:rgb(36,148,165);stroke-width:9.42px;stroke-linecap:round;"/>
                </g>
                <g transform="matrix(0.993664,0.112395,-0.112395,0.993664,167.124,-155.425)">
                    <path d="M1041.02,1459C1100.16,1501.98 1156.28,1503.87 1209,1460" style="fill:none;stroke:rgb(36,148,165);stroke-width:16.62px;stroke-linecap:round;"/>
                </g>
            </g>
        </g>
    </g>
</svg>
