<?xml version="1.0" encoding="UTF-8" standalone="no"?>
<!DOCTYPE svg PUBLIC "-//W3C//DTD SVG 1.1//EN" "http://www.w3.org/Graphics/SVG/1.1/DTD/svg11.dtd">
<svg width="100%" height="100%" viewBox="0 0 525 576" version="1.1" xmlns="http://www.w3.org/2000/svg" xmlns:xlink="http://www.w3.org/1999/xlink" xml:space="preserve" xmlns:serif="http://www.serif.com/" style="fill-rule:evenodd;clip-rule:evenodd;stroke-linejoin:round;stroke-miterlimit:1.5;">
    <g transform="matrix(1,0,0,1,-2232,-1904)">
        <g transform="matrix(0.489576,0,0,0.476251,1144.07,1002.73)">
            <path d="M2807.32,2952L2352.13,2952C2318.94,2952 2292,2924.3 2292,2890.19L2292,2021.81C2292,1987.7 2318.94,1960 2352.13,1960L3196.87,1960C3230.06,1960 3257,1987.7 3257,2021.81L3257,2890.19C3257,2924.3 3230.06,2952 3196.87,2952L2957.16,2952L2959.99,2567.23L3082.49,2566.26L3101.34,2419.01L2959.04,2418.04L2959.04,2313.42C2958.54,2282.39 2970.07,2258.37 3010.87,2251.42L3107,2252.38L3107,2118.7L2966.58,2111.92C2876.13,2128.69 2818.56,2183.76 2809.2,2276.6L2809.2,2419.01L2681.98,2419.98L2684.81,2566.26L2808.26,2569.17L2807.32,2952Z" style="fill:rgb(59,89,152);stroke:rgb(59,89,152);stroke-width:12.94px;"/>
        </g>
    </g>
</svg>
