<?xml version="1.0" encoding="UTF-8" standalone="no"?>
<!DOCTYPE svg PUBLIC "-//W3C//DTD SVG 1.1//EN" "http://www.w3.org/Graphics/SVG/1.1/DTD/svg11.dtd">
<svg width="100%" height="100%" viewBox="0 0 389 341" version="1.1" xmlns="http://www.w3.org/2000/svg" xmlns:xlink="http://www.w3.org/1999/xlink" xml:space="preserve" xmlns:serif="http://www.serif.com/" style="fill-rule:evenodd;clip-rule:evenodd;stroke-linejoin:round;stroke-miterlimit:2;">
    <g transform="matrix(1,0,0,1,-2006,-714)">
        <g transform="matrix(1,0,0,1,80,73)">
            <g transform="matrix(1.30385,0,0,1,-693.377,0)">
                <path d="M2282,808.3C2282,827.783 2269.87,843.6 2254.93,843.6L2049.07,843.6C2034.13,843.6 2022,827.783 2022,808.3C2022,788.817 2034.13,773 2049.07,773L2254.93,773C2269.87,773 2282,788.817 2282,808.3Z" style="fill:rgb(198,192,191);"/>
            </g>
            <g transform="matrix(1.30385,0,0,1,-693.377,106)">
                <path d="M2282,808.3C2282,827.783 2269.87,843.6 2254.93,843.6L2049.07,843.6C2034.13,843.6 2022,827.783 2022,808.3C2022,788.817 2034.13,773 2049.07,773L2254.93,773C2269.87,773 2282,788.817 2282,808.3Z" style="fill:rgb(198,192,191);"/>
            </g>
            <g transform="matrix(1.30385,0,0,1,-693.377,-106.038)">
                <path d="M2282,808.3C2282,827.783 2269.87,843.6 2254.93,843.6L2049.07,843.6C2034.13,843.6 2022,827.783 2022,808.3C2022,788.817 2034.13,773 2049.07,773L2254.93,773C2269.87,773 2282,788.817 2282,808.3Z" style="fill:rgb(198,192,191);"/>
            </g>
        </g>
    </g>
</svg>
